<mxfile host="app.diagrams.net" modified="2022-02-16T23:04:25.500Z" agent="5.0 (Windows NT 10.0; Win64; x64) AppleWebKit/537.36 (KHTML, like Gecko) Chrome/98.0.4758.102 Safari/537.36" etag="3abMEtYkeLR3Y1Z2Z_0J" version="16.5.6" type="github">
  <diagram id="brVJHSIh_22UZP63rIWj" name="Page-1">
    <mxGraphModel dx="1422" dy="754" grid="1" gridSize="10" guides="1" tooltips="1" connect="1" arrows="1" fold="1" page="1" pageScale="1" pageWidth="850" pageHeight="1100" math="0" shadow="0">
      <root>
        <mxCell id="0" />
        <mxCell id="1" parent="0" />
        <mxCell id="-eWhun7Y_J__UqD2DUOM-1" value="" style="rounded=0;whiteSpace=wrap;html=1;" parent="1" vertex="1">
          <mxGeometry x="160" y="80" width="520" height="590" as="geometry" />
        </mxCell>
        <mxCell id="-eWhun7Y_J__UqD2DUOM-2" value="&lt;span style=&quot;color: rgb(0 , 0 , 0) ; font-family: &amp;#34;helvetica&amp;#34; ; font-size: 12px ; font-style: normal ; font-weight: 400 ; letter-spacing: normal ; text-indent: 0px ; text-transform: none ; word-spacing: 0px ; background-color: rgb(248 , 249 , 250) ; display: inline ; float: none&quot;&gt;SIPAK JABAR&lt;/span&gt;" style="text;whiteSpace=wrap;html=1;align=center;" parent="1" vertex="1">
          <mxGeometry x="375" y="80" width="100" height="30" as="geometry" />
        </mxCell>
        <mxCell id="-eWhun7Y_J__UqD2DUOM-3" value="JFAK" style="shape=umlActor;verticalLabelPosition=bottom;verticalAlign=top;html=1;outlineConnect=0;" parent="1" vertex="1">
          <mxGeometry x="84" y="170" width="35" height="70" as="geometry" />
        </mxCell>
        <mxCell id="-eWhun7Y_J__UqD2DUOM-7" value="Tim Penilai" style="shape=umlActor;verticalLabelPosition=bottom;verticalAlign=top;html=1;outlineConnect=0;" parent="1" vertex="1">
          <mxGeometry x="720" y="170" width="35" height="70" as="geometry" />
        </mxCell>
        <mxCell id="-eWhun7Y_J__UqD2DUOM-9" value="Admin" style="shape=umlActor;verticalLabelPosition=bottom;verticalAlign=top;html=1;outlineConnect=0;" parent="1" vertex="1">
          <mxGeometry x="720" y="520" width="35" height="70" as="geometry" />
        </mxCell>
        <mxCell id="-eWhun7Y_J__UqD2DUOM-10" value="Membuat Akun JFAK" style="ellipse;whiteSpace=wrap;html=1;" parent="1" vertex="1">
          <mxGeometry x="350" y="490" width="140" height="50" as="geometry" />
        </mxCell>
        <mxCell id="fws8fyCeU1E8JUEmyzG6-1" value="Membuat Akun Tim Penilai" style="ellipse;whiteSpace=wrap;html=1;" vertex="1" parent="1">
          <mxGeometry x="350" y="560" width="140" height="50" as="geometry" />
        </mxCell>
        <mxCell id="fws8fyCeU1E8JUEmyzG6-2" value="" style="endArrow=none;html=1;rounded=0;exitX=0.5;exitY=0.5;exitDx=0;exitDy=0;exitPerimeter=0;entryX=1;entryY=0.5;entryDx=0;entryDy=0;" edge="1" parent="1" source="-eWhun7Y_J__UqD2DUOM-9" target="-eWhun7Y_J__UqD2DUOM-10">
          <mxGeometry width="50" height="50" relative="1" as="geometry">
            <mxPoint x="400" y="400" as="sourcePoint" />
            <mxPoint x="450" y="350" as="targetPoint" />
          </mxGeometry>
        </mxCell>
        <mxCell id="fws8fyCeU1E8JUEmyzG6-3" value="" style="endArrow=none;html=1;rounded=0;exitX=0.5;exitY=0.5;exitDx=0;exitDy=0;exitPerimeter=0;entryX=1;entryY=0.5;entryDx=0;entryDy=0;" edge="1" parent="1" source="-eWhun7Y_J__UqD2DUOM-9" target="fws8fyCeU1E8JUEmyzG6-1">
          <mxGeometry width="50" height="50" relative="1" as="geometry">
            <mxPoint x="747.5" y="525" as="sourcePoint" />
            <mxPoint x="500" y="525" as="targetPoint" />
          </mxGeometry>
        </mxCell>
        <mxCell id="fws8fyCeU1E8JUEmyzG6-6" value="Pengajuan Dupak" style="ellipse;whiteSpace=wrap;html=1;" vertex="1" parent="1">
          <mxGeometry x="236" y="130" width="114" height="50" as="geometry" />
        </mxCell>
        <mxCell id="fws8fyCeU1E8JUEmyzG6-7" value="" style="endArrow=none;html=1;rounded=0;exitX=0;exitY=0.5;exitDx=0;exitDy=0;entryX=0.5;entryY=0.5;entryDx=0;entryDy=0;entryPerimeter=0;" edge="1" parent="1" source="fws8fyCeU1E8JUEmyzG6-6" target="-eWhun7Y_J__UqD2DUOM-3">
          <mxGeometry width="50" height="50" relative="1" as="geometry">
            <mxPoint x="393" y="155" as="sourcePoint" />
            <mxPoint x="111.5" y="215" as="targetPoint" />
          </mxGeometry>
        </mxCell>
        <mxCell id="fws8fyCeU1E8JUEmyzG6-8" value="Penilaian Dupak" style="ellipse;whiteSpace=wrap;html=1;" vertex="1" parent="1">
          <mxGeometry x="490" y="130" width="114" height="50" as="geometry" />
        </mxCell>
        <mxCell id="fws8fyCeU1E8JUEmyzG6-9" value="" style="endArrow=none;html=1;rounded=0;exitX=0.5;exitY=0.5;exitDx=0;exitDy=0;exitPerimeter=0;" edge="1" parent="1" source="-eWhun7Y_J__UqD2DUOM-7" target="fws8fyCeU1E8JUEmyzG6-8">
          <mxGeometry width="50" height="50" relative="1" as="geometry">
            <mxPoint x="276" y="235" as="sourcePoint" />
            <mxPoint x="111.5" y="215" as="targetPoint" />
          </mxGeometry>
        </mxCell>
      </root>
    </mxGraphModel>
  </diagram>
</mxfile>
